<svg width="800" height="678" viewBox="0 0 800 678" fill="none" xmlns="http://www.w3.org/2000/svg">
<path d="M400 0V341.228L533.333 474.562V133.333H629.299C650 133.333 666.667 150.001 666.667 170.702V229.298C666.667 249.824 650 266.667 629.299 266.667H549.824V400H659.649C737.193 400 800 337.193 800 259.649V677.544H624.562V590.877L491.229 457.544V677.544H400V343.333L331.579 274.912V0H400ZM198.245 0V179.824L266.667 248.245V544.035H170.702C150.001 544.035 133.333 527.369 133.333 506.667V448.245C133.333 427.719 150.001 410.877 170.702 410.877H250.176V277.544H140.351C62.8069 277.544 6.59153e-05 340.351 0 417.895V0H198.245Z" fill="#171B27"/>
</svg>
